<svg id="Ebene_1" data-name="Ebene 1" xmlns="http://www.w3.org/2000/svg" viewBox="0 0 396.64 47.76"><defs><style>.cls-1{font-size:30px;font-family:Georgia, Georgia;}.cls-2{fill:#c00;}.cls-3{fill:#cf0303;}.cls-4{fill:#fe0000;}</style></defs><title>logo_saltatio_zeitplan</title><text class="cls-1" transform="translate(33.41 38.66)">Club Saltatio Hamburg e.V.</text><path class="cls-2" d="M14.85,63,13,61.89q-5.13-3-10.23-6.08a.19.19,0,0,1-.11-.2q0-2.25,0-4.49c0-.1,0-.12.12-.12H7.09c.13,0,.16,0,.16.17,0,.59,0,1.17,0,1.76a.42.42,0,0,0,.24.43c2,1.29,4.12,2.49,6.2,3.7.28.16.57.32.85.49a.3.3,0,0,0,.34,0c.69-.36,1.36-.74,2-1.12l5.28-3a.16.16,0,0,0,.09-.16V47.84c0-.14,0-.18-.18-.18H2.74c-.16,0-.19,0-.19-.2V34.07c0-.13,0-.14.16-.14H26.76c.13,0,.16,0,.16.16v6.52c0,.13,0,.16-.16.16H22.5c-.23,0-.23,0-.23-.22V38.61c0-.14,0-.16-.16-.16H7.31c-.09,0-.11,0-.11.11V42.9c0,.14.08.12.16.12H26.78c.09,0,.15,0,.15.13q0,3,0,5.94a.41.41,0,0,1,0,0,.56.56,0,0,0,0,.19v6.26c0,.07,0,.15,0,.2l-1.76,1.07-5.53,3.33L15,62.9l-.12.09Z" transform="translate(-2 -16.78)"/><path class="cls-2" d="M13,22.79V20.92c0-.12,0-.15.15-.15h3.51c.11,0,.14,0,.14.14v3.63c0,.08,0,.15.11.16a14.65,14.65,0,0,1,3.39.82,12,12,0,0,1,1.44.55c.09,0,.13,0,.19-.06l1.87-3.26c.07-.12.12-.13.23-.06l3,1.7c.11.06.11.11,0,.21l-3.17,5.49-.39.69c-.06.1-.11.1-.2,0-.71-.43-1.46-.8-2.21-1.17a15.6,15.6,0,0,0-2.52-.89,16.83,16.83,0,0,0-1.9-.45,3,3,0,0,0-.46,0,13.75,13.75,0,0,0-4.24.44c-.8.23-1.6.44-2.37.75a21.63,21.63,0,0,0-2.49,1.25c-.11.06-.22.12-.32.19s-.16.06-.23-.06L4.43,27.17,3,24.68c-.05-.09-.05-.13,0-.19l3-1.71c.1-.06.14,0,.2.06l1.87,3.25c.07.12.11.13.23.07a15.45,15.45,0,0,1,2-.75,11.79,11.79,0,0,1,2.54-.57c.13,0,.16-.07.16-.19C13,24,13,23.42,13,22.79Z" transform="translate(-2 -16.78)"/><path class="cls-3" d="M14,18.6h-.47c-.1,0-.11,0-.11-.12a4.1,4.1,0,0,0,0-.42c0-.1,0-.12.12-.12h.87c.13,0,.17,0,.16-.16,0-.29,0-.58,0-.87,0-.09,0-.13.12-.12h.45c.09,0,.11,0,.11.12v.91c0,.1,0,.13.13.13h.76c.1,0,.12,0,.12.12a3.08,3.08,0,0,0,0,.42c0,.11,0,.13-.13.12h-.73c-.11,0-.15,0-.15.14s0,.51,0,.76c0,.09,0,.13-.12.13h-.44c-.09,0-.13,0-.12-.12v-.8c0-.09,0-.12-.11-.11H14Z" transform="translate(-2 -16.78)"/><path class="cls-3" d="M2.33,22.56s-.05,0-.07-.06L2,22.08c0-.08,0-.11,0-.14.27-.16.54-.32.81-.46.09,0,.09-.09,0-.16-.16-.26-.3-.52-.45-.77-.06-.1,0-.14.05-.19a2.24,2.24,0,0,0,.33-.19c.09-.06.13-.05.18,0,.14.26.3.52.44.78.05.1.09.1.18,0l.67-.39c.08,0,.12-.05.16,0a3.52,3.52,0,0,0,.22.38c.05.08,0,.12,0,.16L4,21.61c-.08,0-.1.08,0,.16s.26.46.4.68,0,.12,0,.16l-.39.23c-.08,0-.1,0-.14,0l-.41-.71c0-.07-.07-.07-.14,0l-.8.47Z" transform="translate(-2 -16.78)"/><path class="cls-3" d="M26.81,21.91c-.15.26-.3.51-.45.78,0,.09-.08.11-.17.05l-.37-.22c-.08,0-.09-.08,0-.16.14-.23.27-.48.41-.71,0-.06,0-.09,0-.12l-.77-.44c-.12-.06-.11-.15-.06-.24s.13-.22.19-.34.08-.08.14,0l.77.46c.1.06.16.07.22-.05s.3-.52.44-.78c0-.08.07-.09.15,0a3.59,3.59,0,0,0,.39.23c.09,0,.08.08,0,.16l-.48.82c0,.07,0,.09,0,.13l.7.4c.08,0,.11.08.05.16a3.63,3.63,0,0,0-.22.38c0,.08-.09.09-.16,0Z" transform="translate(-2 -16.78)"/><path class="cls-4" d="M26.86,55.8a.47.47,0,0,0,0-.23V49.33c0-.06,0-.13,0-.18v6.47C26.92,55.68,27,55.77,26.86,55.8Z" transform="translate(-2 -16.78)"/></svg>